<?xml version="1.0" encoding="utf-8"?>
<!-- Generator: Adobe Illustrator 17.0.0, SVG Export Plug-In . SVG Version: 6.00 Build 0)  -->
<!DOCTYPE svg PUBLIC "-//W3C//DTD SVG 1.1//EN" "http://www.w3.org/Graphics/SVG/1.1/DTD/svg11.dtd">
<svg version="1.1" id="Livello_1" xmlns="http://www.w3.org/2000/svg" xmlns:xlink="http://www.w3.org/1999/xlink" x="0px" y="0px"
	 width="350px" height="100px" viewBox="0 0 350 100" style="enable-background:new 0 0 350 100;" xml:space="preserve">
<style type="text/css">
	.st0{fill:none;stroke:#7A92A2;stroke-width:1.98;stroke-linecap:round;stroke-miterlimit:10;}
	.st1{fill:none;stroke:#7A92A2;stroke-width:1.98;stroke-miterlimit:10;}
	.st2{fill:#7A92A2;}
</style>
<g>
	<g>
		<path class="st0" d="M224.2,17.7v32.9c0,6.1-5,11-11,11h-25.5c-6.1,0-11-5-11-11"/>
		<path class="st1" d="M157.4,61.6h-25.5c-6.1,0-11-5-11-11V28.7c0-6.1,5-11,11-11h25.5c6.1,0,11,5,11,11v21.9
			C168.4,56.6,163.4,61.6,157.4,61.6z"/>
		<path class="st1" d="M102,61.6H76.5c-6.1,0-11-5-11-11V28.7c0-6.1,5-11,11-11H102c6.1,0,11,5,11,11v21.9
			C113,56.6,108,61.6,102,61.6z"/>
		<g>
			<path class="st2" d="M32.5,58.1c-4.4-4.4-4.4-11.6,0-16.1c4.4-4.4,11.6-4.4,16.1,0l9.9,9.9V26.8c0-6.7-5.5-12.3-12.3-12.3H16.9
				c-6.7,0-12.3,5.5-12.3,12.3V52c0,6.7,5.5,12.3,12.3,12.3h21.8L32.5,58.1z"/>
			<path class="st2" d="M55.2,54.6c2.9,2.9,3,7.7,0.1,10.5C52.4,68,47.7,68,44.7,65l-9.1-9.1c-2.9-2.9-3-7.7-0.1-10.5
				c2.9-2.9,7.6-2.8,10.5,0.1L55.2,54.6z"/>
		</g>
		<path class="st1" d="M268.8,61.6h-25.5c-6.1,0-11-5-11-11V28.7c0-6.1,5-11,11-11h25.5c6.1,0,11,5,11,11v21.9
			C279.8,56.6,274.9,61.6,268.8,61.6z"/>
		<path class="st0" d="M297.9,61.6V28.7c0-6.1,5-11,11-11h25.5c6.1,0,11,5,11,11v32.9"/>
		<g>
			<line class="st0" x1="288.6" y1="61.6" x2="288.6" y2="17.7"/>
			<g>
				<path class="st2" d="M290.5,5.9c0-0.5-0.4-0.9-0.9-0.9h-1.6c-0.5,0-0.9,0.4-0.9,0.9v1.6c0,0.5,0.4,0.9,0.9,0.9h1.6
					c0.5,0,0.9-0.4,0.9-0.9V5.9z"/>
			</g>
		</g>
	</g>
	<g>
		<path class="st2" d="M67.6,77.6h9.8v0.8h-9v5.4H77v0.8h-8.5v6.6h-0.9V77.6z"/>
		<path class="st2" d="M80.8,81.5h0.9v2.3h0c0.6-1.7,2.1-2.6,4-2.6c0.3,0,0.5,0,0.7,0.1v0.9c-0.2-0.1-0.5-0.1-1-0.1
			c-2.5,0-3.8,1.9-3.8,3.9v5.3h-0.9V81.5z"/>
		<path class="st2" d="M89.8,86.5c0.1,2.4,1.7,4.2,4.6,4.2c3,0,3.8-1.9,4.1-2.8h0.9c-0.8,2.5-2.5,3.5-5.1,3.5c-3.3,0-5.4-2-5.4-5.2
			c0-2,1.3-5.1,5.4-5.1c3.4,0,5.3,2.2,5.4,5.4H89.8z M98.7,85.8c-0.4-2.7-2.2-3.8-4.5-3.8c-2.5,0-4.1,1.5-4.5,3.8H98.7z"/>
		<path class="st2" d="M103.4,86.5c0.1,2.4,1.7,4.2,4.6,4.2c3,0,3.8-1.9,4.1-2.8h0.9c-0.8,2.5-2.5,3.5-5.1,3.5c-3.3,0-5.4-2-5.4-5.2
			c0-2,1.3-5.1,5.4-5.1c3.4,0,5.3,2.2,5.4,5.4H103.4z M112.3,85.8c-0.4-2.7-2.2-3.8-4.5-3.8c-2.5,0-4.1,1.5-4.5,3.8H112.3z"/>
		<path class="st2" d="M122.9,81.5h0.9v2.1h0c0.5-1.2,1.8-2.4,4.3-2.4c3.4,0,5.2,2.4,5.2,5.2c0,3.1-2.2,5.1-5.2,5.1
			c-2.4,0-3.7-1.3-4.3-2.4h0v5.9h-0.9V81.5z M123.7,86.3c0,3.4,2.5,4.5,4.4,4.5c2.2,0,4.3-1.4,4.3-4.4c0-2.8-1.8-4.4-4.2-4.4
			C124.6,81.9,123.7,84.5,123.7,86.3z"/>
		<path class="st2" d="M136.8,84.5c0.3-2.5,1.6-3.3,4.5-3.3c2.8,0,4.5,0.7,4.5,2.8v5.5c0,0.7,0,1.2,0.6,1.2c0.3,0,0.6-0.1,0.9-0.2
			v0.8c-0.3,0.1-0.6,0.2-1.1,0.2c-1.2,0-1.2-0.8-1.2-2.1h0c-1.1,2-3.4,2.2-4.6,2.2c-0.8,0-4,0-4-3c0-2,1.7-2.7,3.7-2.8l3.4-0.2
			c1-0.1,1.5-0.2,1.5-1.4c0-1.3-0.7-2.2-3.6-2.2c-2.6,0-3.4,0.8-3.6,2.5H136.8z M144.9,85.8L144.9,85.8c-0.2,0.2-0.8,0.5-1.6,0.5
			l-3.3,0.2c-1.6,0.1-2.8,0.6-2.8,2c0,2,2,2.2,3.2,2.2c1.9,0,4.5-0.9,4.5-3.2V85.8z"/>
		<path class="st2" d="M157.6,84.3c-0.1-1.6-1.2-2.4-3.7-2.4c-2.4,0-3.2,0.9-3.2,1.9c0,1.1,0.8,1.5,2,1.7l3.1,0.4
			c1.8,0.2,3.1,0.9,3.1,2.7c0,2.6-3,2.9-4.7,2.9c-2.7,0-4.6-0.9-4.7-3.3h0.9c0.1,1,0.3,2.6,4.1,2.6c2.6,0,3.6-0.8,3.6-2.1
			c0-1.1-0.8-1.6-2-1.8l-3.4-0.5c-1.2-0.2-2.7-0.7-2.7-2.5c0-1.1,0.8-2.8,4.1-2.8c3.6,0,4.4,1.6,4.5,3.2H157.6z"/>
		<path class="st2" d="M169.8,84.3c-0.1-1.6-1.2-2.4-3.7-2.4c-2.4,0-3.2,0.9-3.2,1.9c0,1.1,0.8,1.5,2,1.7l3.1,0.4
			c1.8,0.2,3.1,0.9,3.1,2.7c0,2.6-3,2.9-4.7,2.9c-2.7,0-4.6-0.9-4.7-3.3h0.9c0.1,1,0.3,2.6,4.1,2.6c2.6,0,3.6-0.8,3.6-2.1
			c0-1.1-0.8-1.6-2-1.8l-3.4-0.5c-1.2-0.2-2.7-0.7-2.7-2.5c0-1.1,0.8-2.8,4.1-2.8c3.6,0,4.4,1.6,4.5,3.2H169.8z"/>
		<path class="st2" d="M181.8,82.2h-2.3v-0.8h2.3V80c0-1.5,0.4-2.5,2.5-2.5c0.4,0,1,0.1,1.5,0.1v0.8c-0.4-0.1-1-0.1-1.4-0.1
			c-0.4,0-1.7,0-1.7,1.5v1.7h2.8v0.8h-2.8v9h-0.9V82.2z"/>
		<path class="st2" d="M193.3,81.2c3.5,0,5.5,2.4,5.5,5.2s-2,5.2-5.5,5.2c-3.5,0-5.5-2.4-5.5-5.2S189.8,81.2,193.3,81.2z
			 M193.3,90.8c3.1,0,4.6-2.2,4.6-4.4s-1.5-4.4-4.6-4.4c-3.1,0-4.6,2.2-4.6,4.4S190.2,90.8,193.3,90.8z"/>
		<path class="st2" d="M202.3,81.5h0.9v2.3h0c0.6-1.7,2.1-2.6,4-2.6c0.3,0,0.5,0,0.7,0.1v0.9c-0.2-0.1-0.5-0.1-1-0.1
			c-2.5,0-3.8,1.9-3.8,3.9v5.3h-0.9V81.5z"/>
		<path class="st2" d="M217.2,81.5h0.9v2.1h0c0.5-1.2,1.8-2.4,4.3-2.4c3.4,0,5.2,2.4,5.2,5.2c0,3.1-2.2,5.1-5.2,5.1
			c-2.4,0-3.7-1.3-4.3-2.4h0v5.9h-0.9V81.5z M218,86.3c0,3.4,2.5,4.5,4.4,4.5c2.2,0,4.3-1.4,4.3-4.4c0-2.8-1.8-4.4-4.2-4.4
			C218.9,81.9,218,84.5,218,86.3z"/>
		<path class="st2" d="M231.5,86.5c0.1,2.4,1.7,4.2,4.6,4.2c3,0,3.8-1.9,4.1-2.8h0.9c-0.8,2.5-2.5,3.5-5.1,3.5c-3.3,0-5.4-2-5.4-5.2
			c0-2,1.3-5.1,5.4-5.1c3.4,0,5.3,2.2,5.4,5.4H231.5z M240.4,85.8c-0.4-2.7-2.2-3.8-4.5-3.8c-2.5,0-4.1,1.5-4.5,3.8H240.4z"/>
		<path class="st2" d="M249.7,81.2c3.5,0,5.5,2.4,5.5,5.2s-2,5.2-5.5,5.2s-5.5-2.4-5.5-5.2S246.3,81.2,249.7,81.2z M249.7,90.8
			c3.1,0,4.6-2.2,4.6-4.4s-1.5-4.4-4.6-4.4s-4.6,2.2-4.6,4.4S246.7,90.8,249.7,90.8z"/>
		<path class="st2" d="M258.8,81.5h0.9v2.1h0c0.5-1.2,1.8-2.4,4.3-2.4c3.4,0,5.2,2.4,5.2,5.2c0,3.1-2.2,5.1-5.2,5.1
			c-2.4,0-3.7-1.3-4.3-2.4h0v5.9h-0.9V81.5z M259.5,86.3c0,3.4,2.5,4.5,4.4,4.5c2.2,0,4.3-1.4,4.3-4.4c0-2.8-1.8-4.4-4.2-4.4
			C260.4,81.9,259.5,84.5,259.5,86.3z"/>
		<path class="st2" d="M272.8,77.6h0.9v13.6h-0.9V77.6z"/>
		<path class="st2" d="M278.2,86.5c0.1,2.4,1.7,4.2,4.6,4.2c3,0,3.8-1.9,4.1-2.8h0.9c-0.8,2.5-2.5,3.5-5.1,3.5c-3.3,0-5.4-2-5.4-5.2
			c0-2,1.3-5.1,5.4-5.1c3.4,0,5.3,2.2,5.4,5.4H278.2z M287.1,85.8c-0.4-2.7-2.2-3.8-4.5-3.8c-2.5,0-4.1,1.5-4.5,3.8H287.1z"/>
	</g>
</g>
</svg>
