<?xml version="1.0" encoding="utf-8"?>
<!-- Generator: Adobe Illustrator 17.0.0, SVG Export Plug-In . SVG Version: 6.00 Build 0)  -->
<!DOCTYPE svg PUBLIC "-//W3C//DTD SVG 1.1//EN" "http://www.w3.org/Graphics/SVG/1.1/DTD/svg11.dtd">
<svg version="1.1" id="Livello_1" xmlns="http://www.w3.org/2000/svg" xmlns:xlink="http://www.w3.org/1999/xlink" x="0px" y="0px"
	 width="350px" height="70px" viewBox="0 0 350 70" style="enable-background:new 0 0 350 70;" xml:space="preserve">
<style type="text/css">
	.st0{fill:none;stroke:#7A92A2;stroke-width:1.98;stroke-linecap:round;stroke-miterlimit:10;}
	.st1{fill:none;stroke:#7A92A2;stroke-width:1.98;stroke-miterlimit:10;}
	.st2{fill:#7A92A2;}
</style>
<g>
	<path class="st0" d="M223.2,15.7v32.9c0,6.1-5,11-11,11h-25.5c-6.1,0-11-5-11-11"/>
	<path class="st1" d="M156.4,59.6h-25.5c-6.1,0-11-5-11-11V26.7c0-6.1,5-11,11-11h25.5c6.1,0,11,5,11,11v21.9
		C167.4,54.6,162.4,59.6,156.4,59.6z"/>
	<path class="st1" d="M101,59.6H75.5c-6.1,0-11-5-11-11V26.7c0-6.1,5-11,11-11H101c6.1,0,11,5,11,11v21.9
		C112,54.6,107,59.6,101,59.6z"/>
	<g>
		<path class="st2" d="M31.5,56.1c-4.4-4.4-4.4-11.6,0-16.1c4.4-4.4,11.6-4.4,16.1,0l9.9,9.9V24.8c0-6.7-5.5-12.3-12.3-12.3H15.9
			c-6.7,0-12.3,5.5-12.3,12.3V50c0,6.7,5.5,12.3,12.3,12.3h21.8L31.5,56.1z"/>
		<path class="st2" d="M54.2,52.6c2.9,2.9,3,7.7,0.1,10.5C51.4,66,46.7,66,43.7,63l-9.1-9.1c-2.9-2.9-3-7.7-0.1-10.5
			c2.9-2.9,7.6-2.8,10.5,0.1L54.2,52.6z"/>
	</g>
	<path class="st1" d="M267.8,59.6h-25.5c-6.1,0-11-5-11-11V26.7c0-6.1,5-11,11-11h25.5c6.1,0,11,5,11,11v21.9
		C278.8,54.6,273.9,59.6,267.8,59.6z"/>
	<path class="st0" d="M296.9,59.6V26.7c0-6.1,5-11,11-11h25.5c6.1,0,11,5,11,11v32.9"/>
	<g>
		<line class="st0" x1="287.6" y1="59.6" x2="287.6" y2="15.7"/>
		<g>
			<path class="st2" d="M289.5,3.9c0-0.5-0.4-0.9-0.9-0.9h-1.6c-0.5,0-0.9,0.4-0.9,0.9v1.6c0,0.5,0.4,0.9,0.9,0.9h1.6
				c0.5,0,0.9-0.4,0.9-0.9V3.9z"/>
		</g>
	</g>
</g>
</svg>
